<?xml version="1.0" encoding="utf-8"?>
<!-- Generator: Adobe Illustrator 15.0.0, SVG Export Plug-In  -->
<!DOCTYPE svg PUBLIC "-//W3C//DTD SVG 1.1//EN" "http://www.w3.org/Graphics/SVG/1.1/DTD/svg11.dtd" [
	<!ENTITY ns_flows "http://ns.adobe.com/Flows/1.0/">
]>
<svg version="1.1"
	 xmlns="http://www.w3.org/2000/svg" xmlns:xlink="http://www.w3.org/1999/xlink" xmlns:a="http://ns.adobe.com/AdobeSVGViewerExtensions/3.0/"
	 x="0px" y="0px" width="447px" height="189px" viewBox="-0.314 -0.288 447 189"
	 overflow="visible" enable-background="new -0.314 -0.288 447 189" xml:space="preserve">
<defs>
</defs>
<g>
	<path fill="#E6E7E8" d="M202.286,15.134c-28.935-8.042-48.418-0.509-61.868,11.566c-0.848-16.141-6.341-25.718-6.341-25.718
		c-17.116,8.232-26.24,19.177-28.63,32.251c-5.904-7.882-10.436-10.418-10.436-10.418c-6.821,13.128-7.146,23.947-2.375,33.086
		c-1.684-0.668-3.286-1.083-4.746-1.331c-50.931-39.754-76.956-4.169-76.956-4.169C26.506,75.491,30.821,80.46,50.722,84.116
		c-11.898,9.18-11.983,21.505-11.983,21.505c19.404,8.487,31.626,6.829,43.42,1.832c-24.893,41.601,7.303,80.389,7.303,80.389
		c27.449-12.224,36.6-31.785,37.543-51.218c12.254,13.048,26.231,17.9,26.231,17.9c5.887-19.099,0.825-35.339-7.513-48.008
		c9.857,2.344,16.971,0.135,16.971,0.135c-6.024-16.481-16.818-24.59-26.991-28.481C204.884,76.503,202.286,15.134,202.286,15.134z"
		/>
</g>
<path fill="#FFFFFF" d="M204.271,14.403c-27.408-6.957-47.791-0.063-62.521,11.101C142.838,10.739,136.822,0,136.822,0
	c-17.953,7.637-26.332,19.903-29.83,32.189c-5.086-7.3-11.606-10.352-11.606-10.352c-7.634,12.55-6.422,23.564-2.517,32.088
	c-1.554-0.576-3.049-0.916-4.422-1.102C41.026,15.564,0,46.562,0,46.562c14.46,24.299,33.748,33.836,52.056,36.36
	c-11.209,9.669-14.547,21.517-14.547,21.517c17.25,6.956,31.311,4.771,42.257-0.829c-24.109,42.158,1.827,76.497,1.827,76.497
	c24.301-14.461,33.837-33.749,36.36-52.059c9.67,11.211,21.52,14.551,21.52,14.551c7.296-18.097,4.545-32.695-1.67-43.855
	c8.761,1.564,15.532-0.888,15.532-0.888c-3.597-14.756-12.717-21.674-21.809-24.797C196.726,68.562,204.271,14.403,204.271,14.403z"
	/>
<path fill="#414042" d="M182.303,88.633h13.949v6.974h-13.949v16.104h-7.484v-26.82c0-7.542,4.31-12.531,12.361-12.531H199.2v7.372
	h-11.964c-3.572,0-4.934,1.36-4.934,4.989V88.633z"/>
<path fill="#414042" d="M215.527,99.293V72.36h7.484v26.82c0,3.629,1.361,5.16,4.934,5.16h11.851v7.371h-11.907
	C219.837,111.711,215.527,106.834,215.527,99.293z"/>
<path fill="#414042" d="M290.766,91.865c0,11.454-8.107,20.526-19.222,20.526c-11.17,0-19.278-9.072-19.278-20.526
	c0-11.397,8.108-20.469,19.278-20.469C282.658,71.396,290.766,80.468,290.766,91.865z M283.225,91.865
	c0-7.314-5.217-13.381-11.681-13.381c-6.521,0-11.737,6.067-11.737,13.381c0,7.371,5.217,13.438,11.737,13.438
	C278.008,105.304,283.225,99.236,283.225,91.865z"/>
<path fill="#414042" d="M356.989,98.216c0,7.882-5.84,14.176-14.288,14.176c-4.31,0-8.108-1.985-10.49-5.104
	c-2.438,3.119-6.124,5.104-10.489,5.104c-8.393,0-14.232-6.294-14.232-14.176V72.36h7.428v25.913c0,3.743,2.665,6.804,6.805,6.804
	c4.082,0,6.747-3.062,6.747-6.804V72.36h7.541v25.913c0,3.743,2.665,6.804,6.691,6.804c4.082,0,6.804-3.062,6.804-6.804V72.36h7.484
	V98.216z"/>
<path fill="#414042" d="M382.217,88.52h15.934v6.974h-15.934v3.799c0,3.629,1.418,5.046,4.99,5.046h13.835v7.371H387.15
	c-8.108,0-12.418-4.99-12.418-12.531V84.891c0-7.542,4.31-12.531,12.418-12.531h13.892v7.372h-13.835c-3.572,0-4.99,1.36-4.99,4.989
	V88.52z"/>
<path fill="#414042" d="M445.095,111.711h-7.485v-11.567c0-1.531-0.964-2.608-2.607-2.608h-9.356v14.175h-7.541V85.345
	c0-3.742,1.36-7.258,3.742-9.81c2.552-2.665,6.124-4.139,10.093-4.139c7.825,0,13.892,5.784,13.892,12.701
	c0,4.139-1.587,7.201-4.082,9.243c2.098,1.304,3.346,3.402,3.346,6.464V111.711z M438.29,84.607c0-3.402-2.552-6.01-6.237-6.01
	c-4.195,0-6.407,3.119-6.407,6.748v5.33h6.464C436.079,90.675,438.29,88.293,438.29,84.607z"/>
<path opacity="0.75" fill="#FEBE10" d="M108.943,72.717c0,0,23.678-76.501,95.353-58.307
	C204.296,14.41,195.088,80.608,108.943,72.717z"/>
<path opacity="0.75" fill="#F15A29" d="M108.649,72.441c0,0-19.126-52.304,28.198-72.435
	C136.848,0.007,159.641,40.516,108.649,72.441z"/>
<path opacity="0.75" fill="#F7941E" d="M108.381,72.425c0,0-30.924-21.064-12.969-50.581
	C95.412,21.844,123.713,35.03,108.381,72.425z"/>
<path opacity="0.75" fill="#F15A29" d="M81.597,53.021c3.03,21.508,26.456,19.438,26.456,19.438
	C100.614,48.164,81.597,53.021,81.597,53.021z"/>
<path opacity="0.75" fill="#FEBC11" d="M107.812,71.463c0,0,37.354,70.831-26.194,108.65
	C81.619,180.113,41.323,126.794,107.812,71.463z"/>
<path opacity="0.75" fill="#F47920" d="M108.217,71.45c0,0,50.512,23.457,31.281,71.156
	C139.498,142.605,94.736,130.08,108.217,71.45z"/>
<path opacity="0.75" fill="#F79428" d="M108.42,71.271c0,0,36.759-6.973,44.939,26.592
	C153.359,97.862,124.017,108.551,108.42,71.271z"/>
<path opacity="0.75" fill="#F7941E" d="M108.678,72.764c0,0-70.835,37.351-108.652-26.195C0.025,46.569,53.346,6.271,108.678,72.764
	z"/>
<path opacity="0.75" fill="#F26922" d="M108.689,73.166c0,0-23.458,50.513-71.155,31.28
	C37.535,104.445,50.057,59.687,108.689,73.166z"/>
<path opacity="0.75" fill="#F15A29" d="M108.871,73.373c0,0,6.973,36.757-26.599,44.934
	C82.272,118.307,71.589,88.969,108.871,73.373z"/>
<path opacity="0.75" fill="#FFC20E" d="M114.09,106.026c13.064-17.349-4.964-32.447-4.964-32.447
	C97.205,96.012,114.09,106.026,114.09,106.026z"/>
<radialGradient id="SVGID_1_" cx="108.2051" cy="72.4858" r="17.2041" gradientUnits="userSpaceOnUse">
	<stop  offset="0.6626" style="stop-color:#EF4136"/>
	<stop  offset="0.7536" style="stop-color:#EF4436"/>
	<stop  offset="0.8113" style="stop-color:#F04D37"/>
	<stop  offset="0.8597" style="stop-color:#F15B38"/>
	<stop  offset="0.9031" style="stop-color:#F36D3A"/>
	<stop  offset="0.943" style="stop-color:#F5813C"/>
	<stop  offset="0.9799" style="stop-color:#F8973E"/>
	<stop  offset="1" style="stop-color:#FAA73F"/>
</radialGradient>
<circle opacity="0.6" fill="url(#SVGID_1_)" stroke="#FFFFFF" stroke-width="0.4045" stroke-miterlimit="10" cx="108.205" cy="72.486" r="17.204"/>
<radialGradient id="SVGID_2_" cx="108.2051" cy="72.4858" r="17.2041" gradientUnits="userSpaceOnUse">
	<stop  offset="0.6626" style="stop-color:#EF4136"/>
	<stop  offset="0.7536" style="stop-color:#EF4436"/>
	<stop  offset="0.8113" style="stop-color:#F04D37"/>
	<stop  offset="0.8597" style="stop-color:#F15B38"/>
	<stop  offset="0.9031" style="stop-color:#F36D3A"/>
	<stop  offset="0.943" style="stop-color:#F5813C"/>
	<stop  offset="0.9799" style="stop-color:#F8973E"/>
	<stop  offset="1" style="stop-color:#FAA73F"/>
</radialGradient>
<circle fill="url(#SVGID_2_)" cx="108.205" cy="72.486" r="17.204"/>
<path fill="#BA141A" d="M105.357,72.145c0,0,2.047-0.442,6.893,3.405c0,0,1.089,0.656,1.624,0.637
	c0.535-0.018,1.364-0.445,2.251-0.923c0.885-0.479,3.507-2.934,4.984-2.491c1.475,0.442,2.398,1.402,1.604,5.002
	c0,0-1.291,4.226-3.322,3.745c0,0-0.442-0.036-1.182-0.755c-0.736-0.72-3.025-3.451-4.353-3.378
	c-1.329,0.074-2.64,1.182-3.619,1.716c-0.976,0.534-4.501,3.008-7.343,2.528c-2.843-0.48-4.616-2.4-3.25-6.071
	C99.645,75.561,100.844,72.22,105.357,72.145z"/>
<path fill="#FFFFFF" d="M105.678,72.593c0,0,2.047-0.441,6.893,3.406c0,0,1.089,0.656,1.623,0.637
	c0.535-0.018,1.365-0.444,2.252-0.923c0.885-0.479,3.506-2.933,4.984-2.491c1.475,0.442,2.397,1.402,1.604,5.002
	c0,0-1.292,4.226-3.322,3.745c0,0-0.443-0.037-1.182-0.756c-0.736-0.719-3.025-3.451-4.354-3.377
	c-1.329,0.074-2.639,1.181-3.618,1.716c-0.976,0.534-4.501,3.008-7.344,2.528c-2.843-0.479-4.616-2.399-3.249-6.072
	C99.965,76.008,101.164,72.668,105.678,72.593z"/>
<path fill="#FFFFFF" d="M110.508,81.576c0,0,1.328-1.396,3.074-1.313c1.742,0.083,1.852,0.664,2.226,1.3
	c0.376,0.638-0.026,1.08-0.374,1.08c0,0-0.29-0.264-0.4-0.582c-0.11-0.318-0.525-0.873-2.021-0.761c0,0-1.274,0.193-1.827,0.954
	c-0.553,0.761-1.037,0.207-1.037,0.207S109.856,82.117,110.508,81.576z"/>
<path fill="#FFFFFF" d="M108.126,84.595c0,0,1.054,0.748,3.641,0.719c2.589-0.029,4.002-0.858,4.192-0.982
	c0,0,0.584-0.43,0.694-0.236c0.11,0.193,0.263,0.83-0.622,1.177c0,0-1.537,1.369-6.326,1.093c0,0-2.506-0.428-2.879-1.343
	c0,0-0.193-0.442,0.18-0.637C107.378,84.193,107.463,84.041,108.126,84.595z"/>
</svg>
